<?xml version="1.0" encoding="UTF-8" standalone="no"?>
<svg
   xmlns:dc="http://purl.org/dc/elements/1.1/"
   xmlns:cc="http://creativecommons.org/ns#"
   xmlns:rdf="http://www.w3.org/1999/02/22-rdf-syntax-ns#"
   xmlns:svg="http://www.w3.org/2000/svg"
   xmlns="http://www.w3.org/2000/svg"
   xmlns:sodipodi="http://sodipodi.sourceforge.net/DTD/sodipodi-0.dtd"
   xmlns:inkscape="http://www.inkscape.org/namespaces/inkscape"
   viewBox="0 0 48 48"
   id="svg2"
   version="1.1"
   inkscape:version="0.91 r"
   sodipodi:docname="xpander.svg">
  <metadata
     id="metadata59">
    <rdf:RDF>
      <cc:Work
         rdf:about="">
        <dc:format>image/svg+xml</dc:format>
        <dc:type
           rdf:resource="http://purl.org/dc/dcmitype/StillImage" />
        <dc:title />
      </cc:Work>
    </rdf:RDF>
  </metadata>
  <sodipodi:namedview
     pagecolor="#ffffff"
     bordercolor="#666666"
     borderopacity="1"
     objecttolerance="10"
     gridtolerance="10"
     guidetolerance="10"
     inkscape:pageopacity="0"
     inkscape:pageshadow="2"
     inkscape:window-width="1280"
     inkscape:window-height="750"
     id="namedview57"
     showgrid="false"
     inkscape:zoom="9.8333333"
     inkscape:cx="41.098953"
     inkscape:cy="27.66991"
     inkscape:window-x="0"
     inkscape:window-y="0"
     inkscape:window-maximized="1"
     inkscape:current-layer="svg2" />
  <defs
     id="defs4">
    <linearGradient
       id="linearGradient3764"
       x1="1"
       x2="47"
       gradientUnits="userSpaceOnUse"
       gradientTransform="matrix(0,-1,1,0,-1.5e-6,47.999998)">
      <stop
         style="stop-color:#2d88dd;stop-opacity:1"
         id="stop7" />
      <stop
         offset="1"
         style="stop-color:#3e90e0;stop-opacity:1"
         id="stop9" />
    </linearGradient>
    <clipPath
       id="clipPath-324969943">
      <g
         transform="translate(0,-1004.3622)"
         id="g12">
        <path
           d="m -24 13 c 0 1.105 -0.672 2 -1.5 2 -0.828 0 -1.5 -0.895 -1.5 -2 0 -1.105 0.672 -2 1.5 -2 0.828 0 1.5 0.895 1.5 2 z"
           transform="matrix(15.333333,0,0,11.5,414.99999,878.8622)"
           style="fill:#1890d0"
           id="path14" />
      </g>
    </clipPath>
    <clipPath
       id="clipPath-330412060">
      <g
         transform="translate(0,-1004.3622)"
         id="g17">
        <path
           d="m -24 13 c 0 1.105 -0.672 2 -1.5 2 -0.828 0 -1.5 -0.895 -1.5 -2 0 -1.105 0.672 -2 1.5 -2 0.828 0 1.5 0.895 1.5 2 z"
           transform="matrix(15.333333,0,0,11.5,414.99999,878.8622)"
           style="fill:#1890d0"
           id="path19" />
      </g>
    </clipPath>
  </defs>
  <g
     id="g29"
     style="fill:#ff2a2a">
    <path
       d="m 24 1 c 12.703 0 23 10.297 23 23 c 0 12.703 -10.297 23 -23 23 -12.703 0 -23 -10.297 -23 -23 0 -12.703 10.297 -23 23 -23 z"
       style="fill:#ff2a2a;fill-opacity:1"
       id="path31" />
  </g>
  <g
     transform="scale(1.0164284,0.98383713)"
     style="font-style:italic;font-variant:normal;font-weight:normal;font-stretch:normal;font-size:34.28607941px;line-height:125%;font-family:'Droid Serif';-inkscape-font-specification:'Droid Serif, Italic';text-align:start;letter-spacing:0px;word-spacing:0px;writing-mode:lr-tb;text-anchor:start;opacity:0.25;fill:#4d4d4d;fill-opacity:1;stroke:none;stroke-width:1px;stroke-linecap:butt;stroke-linejoin:miter;stroke-opacity:1"
     id="text3391">
    <path
       d="m 37.768277,14.07229 -0.301342,0 q -0.93751,0 -1.690866,0.502238 -0.736615,0.502237 -2.193104,2.059173 l -6.478864,7.165255 4.118348,10.04475 q 0.753356,1.824796 2.360516,1.824796 l 0.452014,0 -0.301343,1.439748 -9.257911,0 0.301343,-1.439748 0.385048,0 q 1.021216,0 1.60716,-0.334825 0.585944,-0.351566 0.585944,-0.870545 0,-0.703132 -0.652909,-2.360516 l -2.226586,-5.457647 -5.122822,5.692024 q -1.372783,1.523454 -1.372783,2.41074 0,0.920769 2.025691,0.920769 l 0.100448,0 -0.301343,1.439748 -8.119506,0 0.301343,-1.439748 0.13393,0 q 1.121663,0 1.992208,-0.585944 0.887287,-0.585943 2.059174,-1.87502 l 7.583786,-8.270177 -3.683075,-9.123981 q -0.703132,-1.74109 -2.661858,-1.74109 l -0.452014,0 0.301342,-1.439747 9.291394,0 -0.301343,1.439747 -0.786838,0 q -1.60716,0 -1.60716,0.954251 0,0.485497 0.619426,2.059174 l 1.941985,5.005634 4.28576,-4.938669 q 1.305817,-1.506712 1.305817,-2.226586 0,-0.853804 -1.640642,-0.853804 l -0.100448,0 0.301343,-1.439747 7.516821,0 -0.318084,1.439747 z"
       style=""
       id="path3357" />
  </g>
  <g
     transform="scale(1.0164284,0.9838371)"
     style="font-style:italic;font-variant:normal;font-weight:normal;font-stretch:normal;font-size:34.28607941px;line-height:125%;font-family:'Droid Serif';-inkscape-font-specification:'Droid Serif, Italic';text-align:start;letter-spacing:0px;word-spacing:0px;writing-mode:lr-tb;text-anchor:start;fill:#333333;fill-opacity:1;stroke:none;stroke-width:1px;stroke-linecap:butt;stroke-linejoin:miter;stroke-opacity:1"
     id="text3387">
    <path
       d="m 36.767765,13.65883 -0.301342,0 q -0.93751,0 -1.690867,0.502238 -0.736615,0.502237 -2.193103,2.059173 l -6.478864,7.165255 4.118348,10.04475 q 0.753356,1.824796 2.360516,1.824796 l 0.452013,0 -0.301342,1.439748 -9.257911,0 0.301342,-1.439748 0.385049,0 q 1.021216,0 1.60716,-0.334825 0.585944,-0.351566 0.585944,-0.870545 0,-0.703132 -0.652909,-2.360516 l -2.226586,-5.457647 -5.122823,5.692025 q -1.372782,1.523453 -1.372782,2.41074 0,0.920768 2.025691,0.920768 l 0.100448,0 -0.301343,1.439748 -8.119506,0 0.301343,-1.439748 0.13393,0 q 1.121663,0 1.992208,-0.585943 0.887287,-0.585944 2.059174,-1.87502 l 7.583786,-8.270178 -3.683075,-9.123981 q -0.703132,-1.74109 -2.661858,-1.74109 l -0.452014,0 0.301342,-1.439747 9.291394,0 -0.301343,1.439747 -0.786838,0 q -1.60716,0 -1.60716,0.954252 0,0.485496 0.619426,2.059173 l 1.941985,5.005634 4.28576,-4.938669 q 1.305817,-1.506712 1.305817,-2.226586 0,-0.853804 -1.640642,-0.853804 l -0.100448,0 0.301343,-1.439747 7.516821,0 -0.318084,1.439747 z"
       style=""
       id="path3354" />
  </g>
  <g
     id="g21">
    <path
       d="m 36.31 5 c 5.859 4.062 9.688 10.831 9.688 18.5 c 0 12.426 -10.07 22.5 -22.5 22.5 c -7.669 0 -14.438 -3.828 -18.5 -9.688 c 1.037 1.822 2.306 3.499 3.781 4.969 c 4.085 3.712 9.514 5.969 15.469 5.969 c 12.703 0 23 -10.298 23 -23 c 0 -5.954 -2.256 -11.384 -5.969 -15.469 c -1.469 -1.475 -3.147 -2.744 -4.969 -3.781 z m 4.969 3.781 c 3.854 4.113 6.219 9.637 6.219 15.719 c 0 12.703 -10.297 23 -23 23 c -6.081 0 -11.606 -2.364 -15.719 -6.219 c 4.16 4.144 9.883 6.719 16.219 6.719 c 12.703 0 23 -10.298 23 -23 c 0 -6.335 -2.575 -12.06 -6.719 -16.219 z"
       style="opacity:0.05"
       id="path23" />
    <path
       d="m 41.28 8.781 c 3.712 4.085 5.969 9.514 5.969 15.469 c 0 12.703 -10.297 23 -23 23 c -5.954 0 -11.384 -2.256 -15.469 -5.969 c 4.113 3.854 9.637 6.219 15.719 6.219 c 12.703 0 23 -10.298 23 -23 c 0 -6.081 -2.364 -11.606 -6.219 -15.719 z"
       style="opacity:0.1"
       id="path25" />
    <path
       d="m 31.25 2.375 c 8.615 3.154 14.75 11.417 14.75 21.13 c 0 12.426 -10.07 22.5 -22.5 22.5 c -9.708 0 -17.971 -6.135 -21.12 -14.75 a 23 23 0 0 0 44.875 -7 a 23 23 0 0 0 -16 -21.875 z"
       style="opacity:0.2"
       id="path27" />
  </g>
  <g
     id="g53">
    <path
       d="m 40.03 7.531 c 3.712 4.084 5.969 9.514 5.969 15.469 0 12.703 -10.297 23 -23 23 c -5.954 0 -11.384 -2.256 -15.469 -5.969 4.178 4.291 10.01 6.969 16.469 6.969 c 12.703 0 23 -10.298 23 -23 0 -6.462 -2.677 -12.291 -6.969 -16.469 z"
       style="opacity:0.1"
       id="path55" />
  </g>
</svg>
