<?xml version="1.0" encoding="UTF-8" standalone="no"?>
<svg
   xmlns:dc="http://purl.org/dc/elements/1.1/"
   xmlns:cc="http://creativecommons.org/ns#"
   xmlns:rdf="http://www.w3.org/1999/02/22-rdf-syntax-ns#"
   xmlns:svg="http://www.w3.org/2000/svg"
   xmlns="http://www.w3.org/2000/svg"
   xmlns:sodipodi="http://sodipodi.sourceforge.net/DTD/sodipodi-0.dtd"
   xmlns:inkscape="http://www.inkscape.org/namespaces/inkscape"
   viewBox="0 0 48 48"
   id="svg2"
   version="1.1"
   inkscape:version="0.91 r"
   sodipodi:docname="xpander.svg">
  <metadata
     id="metadata59">
    <rdf:RDF>
      <cc:Work
         rdf:about="">
        <dc:format>image/svg+xml</dc:format>
        <dc:type
           rdf:resource="http://purl.org/dc/dcmitype/StillImage" />
        <dc:title />
      </cc:Work>
    </rdf:RDF>
  </metadata>
  <sodipodi:namedview
     pagecolor="#ffffff"
     bordercolor="#666666"
     borderopacity="1"
     objecttolerance="10"
     gridtolerance="10"
     guidetolerance="10"
     inkscape:pageopacity="0"
     inkscape:pageshadow="2"
     inkscape:window-width="1280"
     inkscape:window-height="750"
     id="namedview57"
     showgrid="false"
     inkscape:zoom="9.8333331"
     inkscape:cx="12.3145"
     inkscape:cy="27.480523"
     inkscape:window-x="0"
     inkscape:window-y="0"
     inkscape:window-maximized="1"
     inkscape:current-layer="svg2" />
  <defs
     id="defs4">
    <linearGradient
       id="linearGradient3764"
       x1="1"
       x2="47"
       gradientUnits="userSpaceOnUse"
       gradientTransform="matrix(0,-1,1,0,-1.5e-6,47.999998)">
      <stop
         style="stop-color:#2d88dd;stop-opacity:1"
         id="stop7" />
      <stop
         offset="1"
         style="stop-color:#3e90e0;stop-opacity:1"
         id="stop9" />
    </linearGradient>
    <clipPath
       id="clipPath-324969943">
      <g
         transform="translate(0,-1004.3622)"
         id="g12">
        <path
           d="m -24 13 c 0 1.105 -0.672 2 -1.5 2 -0.828 0 -1.5 -0.895 -1.5 -2 0 -1.105 0.672 -2 1.5 -2 0.828 0 1.5 0.895 1.5 2 z"
           transform="matrix(15.333333,0,0,11.5,414.99999,878.8622)"
           style="fill:#1890d0"
           id="path14" />
      </g>
    </clipPath>
    <clipPath
       id="clipPath-330412060">
      <g
         transform="translate(0,-1004.3622)"
         id="g17">
        <path
           d="m -24 13 c 0 1.105 -0.672 2 -1.5 2 -0.828 0 -1.5 -0.895 -1.5 -2 0 -1.105 0.672 -2 1.5 -2 0.828 0 1.5 0.895 1.5 2 z"
           transform="matrix(15.333333,0,0,11.5,414.99999,878.8622)"
           style="fill:#1890d0"
           id="path19" />
      </g>
    </clipPath>
    <linearGradient
       gradientTransform="matrix(0,-1,1,0,-1.5e-6,47.999998)"
       gradientUnits="userSpaceOnUse"
       x2="47"
       x1="1"
       id="linearGradient3764-6">
      <stop
         id="stop4266"
         style="stop-color:#d6262e;stop-opacity:1" />
      <stop
         id="stop4268"
         style="stop-color:#db363f;stop-opacity:1"
         offset="1" />
    </linearGradient>
    <clipPath
       id="clipPath-522519452">
      <g
         id="g4271"
         transform="translate(0,-1004.3622)">
        <path
           id="path4273"
           style="fill:#1890d0"
           transform="matrix(15.333333,0,0,11.5,414.99999,878.8622)"
           d="m -24 13 c 0 1.105 -0.672 2 -1.5 2 -0.828 0 -1.5 -0.895 -1.5 -2 0 -1.105 0.672 -2 1.5 -2 0.828 0 1.5 0.895 1.5 2 z" />
      </g>
    </clipPath>
    <clipPath
       id="clipPath-536897967">
      <g
         id="g4276"
         transform="translate(0,-1004.3622)">
        <path
           id="path4278"
           style="fill:#1890d0"
           transform="matrix(15.333333,0,0,11.5,414.99999,878.8622)"
           d="m -24 13 c 0 1.105 -0.672 2 -1.5 2 -0.828 0 -1.5 -0.895 -1.5 -2 0 -1.105 0.672 -2 1.5 -2 0.828 0 1.5 0.895 1.5 2 z" />
      </g>
    </clipPath>
  </defs>
  <g
     id="g29"
     style="fill:#d72830;fill-opacity:1">
    <path
       d="m 24 1 c 12.703 0 23 10.297 23 23 c 0 12.703 -10.297 23 -23 23 -12.703 0 -23 -10.297 -23 -23 0 -12.703 10.297 -23 23 -23 z"
       style="fill:#d72830;fill-opacity:1"
       id="path31" />
  </g>
  <g
     id="g3362"
     style="font-style:italic;font-variant:normal;font-weight:bold;font-stretch:normal;font-size:33.88394928px;line-height:125%;font-family:'Droid Serif';-inkscape-font-specification:'Droid Serif, Bold Italic';text-align:start;letter-spacing:0px;word-spacing:0px;writing-mode:lr-tb;text-anchor:start;opacity:0.5;fill:#c2262d;fill-opacity:1;stroke:none;stroke-width:1px;stroke-linecap:butt;stroke-linejoin:miter;stroke-opacity:1"
     transform="matrix(1.0087672,0,0,0.99130903,-1.3528174,0.43145496)">
    <path
       id="path3364"
       d="m 38.895631,13.811241 -0.314353,0 q -0.496347,0 -0.909969,0.115814 -0.413623,0.115815 -0.860335,0.397078 -0.430167,0.281263 -0.926514,0.74452 -0.479802,0.463257 -1.125053,1.158143 l -6.369786,6.700683 4.169314,9.69531 q 0.463257,1.042329 1.075419,1.422861 0.628706,0.363988 1.257412,0.363988 l 0.446712,0 -0.380533,1.803394 -11.18435,0 0.380533,-1.803394 0.512891,0 q 1.009239,0 1.455951,-0.297808 0.463257,-0.314353 0.463257,-0.87688 0,-0.479802 -0.165449,-1.058873 -0.165448,-0.595616 -0.479802,-1.290502 l -2.068112,-4.665661 -4.73184,4.913834 q -0.612161,0.628706 -0.992694,1.207778 -0.363988,0.579071 -0.363988,1.058873 0,0.248174 0.08272,0.430168 0.08272,0.181993 0.281263,0.314353 0.215084,0.132359 0.562526,0.198538 0.363988,0.06618 0.926515,0.06618 l 0.115814,0 -0.380533,1.803394 -8.537167,0 0.380533,-1.803394 0.330898,0 q 0.512892,0 0.943059,-0.115814 0.446712,-0.132359 0.893425,-0.413623 0.463257,-0.281263 0.976148,-0.74452 0.529437,-0.463257 1.191233,-1.158143 l 7.478294,-7.726467 -3.788782,-8.702616 q -0.248173,-0.562526 -0.512892,-0.909969 -0.248173,-0.347443 -0.562526,-0.529437 -0.314353,-0.181994 -0.711431,-0.231628 -0.380532,-0.06618 -0.860334,-0.06618 l -0.297809,0 0.363988,-1.786849 11.21744,0 -0.363987,1.786849 -0.794155,0 q -0.84379,0 -1.224323,0.248174 -0.363987,0.248173 -0.363987,0.71143 0,0.330898 0.148904,0.827245 0.165449,0.479802 0.463257,1.191233 l 1.803393,4.202403 3.987321,-4.268583 q 0.463257,-0.479802 0.827245,-1.042329 0.363987,-0.562526 0.363987,-1.025783 0,-0.430167 -0.413622,-0.628706 -0.413623,-0.215084 -1.207778,-0.215084 l -0.09927,0 0.363988,-1.786849 7.891916,0 -0.363988,1.786849 z"
       inkscape:connector-curvature="0"
       style="fill:#c2262d;fill-opacity:1" />
  </g>
  <g
     transform="scale(1.0087672,0.99130903)"
     style="font-style:italic;font-variant:normal;font-weight:bold;font-stretch:normal;font-size:33.88394928px;line-height:125%;font-family:'Droid Serif';-inkscape-font-specification:'Droid Serif, Bold Italic';text-align:start;letter-spacing:0px;word-spacing:0px;writing-mode:lr-tb;text-anchor:start;fill:#ffe5e5;fill-opacity:1;stroke:none;stroke-width:1px;stroke-linecap:butt;stroke-linejoin:miter;stroke-opacity:1"
     id="text3353">
    <path
       d="m 36.913013,13.811241 -0.314353,0 q -0.496347,0 -0.909969,0.115814 -0.413623,0.115815 -0.860335,0.397078 -0.430167,0.281263 -0.926514,0.74452 -0.479802,0.463257 -1.125053,1.158143 l -6.369786,6.700683 4.169314,9.69531 q 0.463257,1.042329 1.075419,1.422861 0.628706,0.363988 1.257412,0.363988 l 0.446712,0 -0.380533,1.803394 -11.18435,0 0.380533,-1.803394 0.512891,0 q 1.009239,0 1.455951,-0.297808 0.463257,-0.314353 0.463257,-0.87688 0,-0.479802 -0.165449,-1.058873 -0.165448,-0.595616 -0.479802,-1.290502 l -2.068112,-4.665661 -4.73184,4.913834 q -0.612161,0.628706 -0.992694,1.207778 -0.363988,0.579071 -0.363988,1.058873 0,0.248174 0.08272,0.430168 0.08272,0.181993 0.281263,0.314353 0.215084,0.132359 0.562526,0.198538 0.363988,0.06618 0.926515,0.06618 l 0.115814,0 -0.380533,1.803394 -8.537167,0 0.380533,-1.803394 0.330898,0 q 0.512892,0 0.943059,-0.115814 0.446712,-0.132359 0.893425,-0.413623 0.463257,-0.281263 0.976148,-0.74452 0.529437,-0.463257 1.191233,-1.158143 l 7.478294,-7.726467 -3.788782,-8.702616 q -0.248173,-0.562526 -0.512892,-0.909969 -0.248173,-0.347443 -0.562526,-0.529437 -0.314353,-0.181994 -0.711431,-0.231628 -0.380532,-0.06618 -0.860334,-0.06618 l -0.297809,0 0.363988,-1.786849 11.21744,0 -0.363987,1.786849 -0.794155,0 q -0.84379,0 -1.224323,0.248174 -0.363987,0.248173 -0.363987,0.71143 0,0.330898 0.148904,0.827245 0.165449,0.479802 0.463257,1.191233 l 1.803393,4.202403 3.987321,-4.268583 q 0.463257,-0.479802 0.827245,-1.042329 0.363987,-0.562526 0.363987,-1.025783 0,-0.430167 -0.413622,-0.628706 -0.413623,-0.215084 -1.207778,-0.215084 l -0.09927,0 0.363988,-1.786849 7.891916,0 -0.363988,1.786849 z"
       style="opacity:1;fill:#ffe5e5;fill-opacity:1"
       id="path3360"
       inkscape:connector-curvature="0" />
  </g>
  <g
     id="g21">
    <path
       d="m 36.31 5 c 5.859 4.062 9.688 10.831 9.688 18.5 c 0 12.426 -10.07 22.5 -22.5 22.5 c -7.669 0 -14.438 -3.828 -18.5 -9.688 c 1.037 1.822 2.306 3.499 3.781 4.969 c 4.085 3.712 9.514 5.969 15.469 5.969 c 12.703 0 23 -10.298 23 -23 c 0 -5.954 -2.256 -11.384 -5.969 -15.469 c -1.469 -1.475 -3.147 -2.744 -4.969 -3.781 z m 4.969 3.781 c 3.854 4.113 6.219 9.637 6.219 15.719 c 0 12.703 -10.297 23 -23 23 c -6.081 0 -11.606 -2.364 -15.719 -6.219 c 4.16 4.144 9.883 6.719 16.219 6.719 c 12.703 0 23 -10.298 23 -23 c 0 -6.335 -2.575 -12.06 -6.719 -16.219 z"
       style="opacity:0.05"
       id="path23" />
    <path
       d="m 41.28 8.781 c 3.712 4.085 5.969 9.514 5.969 15.469 c 0 12.703 -10.297 23 -23 23 c -5.954 0 -11.384 -2.256 -15.469 -5.969 c 4.113 3.854 9.637 6.219 15.719 6.219 c 12.703 0 23 -10.298 23 -23 c 0 -6.081 -2.364 -11.606 -6.219 -15.719 z"
       style="opacity:0.1"
       id="path25" />
    <path
       d="m 31.25 2.375 c 8.615 3.154 14.75 11.417 14.75 21.13 c 0 12.426 -10.07 22.5 -22.5 22.5 c -9.708 0 -17.971 -6.135 -21.12 -14.75 a 23 23 0 0 0 44.875 -7 a 23 23 0 0 0 -16 -21.875 z"
       style="opacity:0.2"
       id="path27" />
  </g>
  <g
     id="g53">
    <path
       d="m 40.03 7.531 c 3.712 4.084 5.969 9.514 5.969 15.469 0 12.703 -10.297 23 -23 23 c -5.954 0 -11.384 -2.256 -15.469 -5.969 4.178 4.291 10.01 6.969 16.469 6.969 c 12.703 0 23 -10.298 23 -23 0 -6.462 -2.677 -12.291 -6.969 -16.469 z"
       style="opacity:0.1"
       id="path55" />
  </g>
</svg>
